<svg width="24" height="25" viewBox="0 0 24 25" fill="none" xmlns="http://www.w3.org/2000/svg">
<path fill-rule="evenodd" clip-rule="evenodd" d="M10.5 1.3125C10.9327 0.987945 11.4591 0.8125 12 0.8125C12.5409 0.8125 13.0673 0.987945 13.5 1.3125L22.25 7.875C22.5605 8.10787 22.8125 8.40983 22.9861 8.75697C23.1596 9.1041 23.25 9.48689 23.25 9.875V21.75C23.25 22.413 22.9866 23.0489 22.5178 23.5178C22.0489 23.9866 21.413 24.25 20.75 24.25H14.625C14.2603 24.25 13.9106 24.1051 13.6527 23.8473C13.3949 23.5894 13.25 23.2397 13.25 22.875V15.5C13.25 15.1685 13.1183 14.8505 12.8839 14.6161C12.6495 14.3817 12.3315 14.25 12 14.25C11.6685 14.25 11.3505 14.3817 11.1161 14.6161C10.8817 14.8505 10.75 15.1685 10.75 15.5V22.875C10.75 23.0556 10.7144 23.2344 10.6453 23.4012C10.5762 23.568 10.475 23.7196 10.3473 23.8473C10.2196 23.975 10.068 24.0762 9.90119 24.1453C9.73437 24.2144 9.55557 24.25 9.375 24.25H3.25C2.58696 24.25 1.95107 23.9866 1.48223 23.5178C1.01339 23.0489 0.75 22.413 0.75 21.75V9.875C0.75 9.48689 0.840363 9.1041 1.01393 8.75697C1.1875 8.40983 1.43951 8.10787 1.75 7.875L10.5 1.3125ZM12 3.3125L3.25 9.875V21.75H8.25V15.5C8.25 14.5054 8.64509 13.5516 9.34835 12.8483C10.0516 12.1451 11.0054 11.75 12 11.75C12.9946 11.75 13.9484 12.1451 14.6517 12.8483C15.3549 13.5516 15.75 14.5054 15.75 15.5V21.75H20.75V9.875L12 3.3125Z" fill="#A7A7A7"/>
</svg>
