<svg width="240" height="177" viewBox="0 0 240 177" fill="none" xmlns="http://www.w3.org/2000/svg">
<g filter="url(#filter0_d_187_1755)">
<path d="M132.5 75H107.5C103.358 75 100 71.6425 100 67.5V42.5C100 38.3575 103.358 35 107.5 35H132.5C136.642 35 140 38.3575 140 42.5V67.5C140 71.6425 136.642 75 132.5 75Z" fill="#F0682C"/>
</g>
<path d="M128.735 53.1854L128.735 53.1853C128.271 53.118 127.829 52.947 127.441 52.6851L127.721 52.2706L127.441 52.6851C127.053 52.4231 126.729 52.077 126.493 51.6724L126.925 51.4206L126.493 51.6724C126.257 51.2679 126.115 50.8153 126.079 50.3484C126.042 49.8825 126.111 49.4143 126.28 48.9785C126.333 48.8371 126.34 48.6827 126.302 48.5367C126.263 48.3901 126.179 48.2594 126.062 48.1628L126.058 48.1601L126.058 48.1601C125.231 47.4651 124.289 46.9191 123.274 46.5465L123.273 46.5459C123.128 46.4921 122.97 46.4854 122.821 46.5267C122.673 46.5678 122.542 46.6544 122.445 46.7742C122.155 47.1447 121.784 47.4444 121.361 47.6506C120.937 47.8573 120.472 47.9647 120 47.9647C119.528 47.9647 119.063 47.8573 118.639 47.6506C118.216 47.4444 117.845 47.1447 117.555 46.7742C117.458 46.6544 117.327 46.5678 117.179 46.5267C117.03 46.4854 116.872 46.4921 116.727 46.5459L116.726 46.5465C115.789 46.8906 114.913 47.3821 114.131 48.0023L114.13 48.0026C114.006 48.1006 113.917 48.2358 113.876 48.3883C113.834 48.5396 113.842 48.6999 113.898 48.8463C114.08 49.2933 114.155 49.7765 114.117 50.2577C114.079 50.7406 113.929 51.208 113.678 51.6222C113.427 52.0365 113.082 52.3861 112.671 52.643C112.262 52.8992 111.798 53.0562 111.317 53.1013C111.162 53.1186 111.016 53.1848 110.901 53.2904C110.786 53.3968 110.707 53.5374 110.678 53.6917L110.677 53.6962L110.677 53.6962C110.559 54.2781 110.5 54.8702 110.5 55.4639V55.4647C110.499 55.9621 110.539 56.4586 110.62 56.9493L110.621 56.9523L110.621 56.9523C110.646 57.1115 110.723 57.2579 110.839 57.369C110.956 57.4794 111.105 57.5487 111.264 57.5664C111.755 57.6131 112.229 57.7767 112.644 58.0434C113.061 58.3108 113.408 58.6741 113.655 59.1029C113.903 59.5318 114.044 60.0137 114.067 60.5083C114.09 61.0029 113.994 61.4958 113.788 61.9458L113.787 61.9468C113.721 62.0912 113.704 62.2536 113.74 62.4084C113.777 62.5632 113.863 62.7015 113.987 62.8013L113.993 62.8056L113.993 62.8057C114.814 63.4872 115.746 64.0239 116.748 64.3927C116.83 64.4207 116.916 64.4357 117.003 64.4372C117.117 64.4363 117.231 64.4083 117.333 64.3552C117.435 64.302 117.523 64.2252 117.59 64.1312C117.873 63.7193 118.253 63.3826 118.695 63.1501C119.139 62.9172 119.633 62.7961 120.134 62.7972C120.134 62.7972 120.134 62.7972 120.135 62.7972L120.133 63.2972C120.54 63.2977 120.941 63.3932 121.305 63.5761L128.735 53.1854ZM128.735 53.1854C128.885 53.207 129.024 53.2753 129.133 53.3805C129.242 53.4858 129.315 53.6226 129.341 53.7716L129.341 53.7716L129.342 53.7768C129.447 54.3318 129.5 54.8953 129.5 55.4602L128.735 53.1854ZM113.333 61.7372C113.507 61.3598 113.587 60.9463 113.568 60.5315C113.548 60.1167 113.43 59.7125 113.222 59.3528C113.015 58.9932 112.724 58.6884 112.374 58.4642C112.025 58.2399 111.627 58.1027 111.213 58.0639C110.944 58.035 110.691 57.9181 110.495 57.7313C110.299 57.5445 110.169 57.2982 110.127 57.0305L113.333 61.7372ZM113.333 61.7372C113.22 61.9827 113.192 62.259 113.253 62.5223M113.333 61.7372L113.253 62.5223M113.253 62.5223C113.315 62.7856 113.463 63.0208 113.673 63.1905L113.253 62.5223ZM123.187 57.5935C123.609 56.9631 123.833 56.222 123.833 55.4639C123.833 54.4472 123.429 53.4722 122.711 52.7533C121.992 52.0344 121.017 51.6305 120 51.6305C119.242 51.6305 118.501 51.8553 117.87 52.2766C117.24 52.6978 116.749 53.2965 116.458 53.9969C116.168 54.6974 116.092 55.4681 116.24 56.2117C116.388 56.9553 116.753 57.6383 117.289 58.1744C117.826 58.7105 118.509 59.0756 119.252 59.2235C119.996 59.3714 120.767 59.2955 121.467 59.0054C122.167 58.7153 122.766 58.2239 123.187 57.5935Z" fill="#F0682C" stroke="white"/>
<defs>
<filter id="filter0_d_187_1755" x="0" y="-63" width="240" height="240" filterUnits="userSpaceOnUse" color-interpolation-filters="sRGB">
<feFlood flood-opacity="0" result="BackgroundImageFix"/>
<feColorMatrix in="SourceAlpha" type="matrix" values="0 0 0 0 0 0 0 0 0 0 0 0 0 0 0 0 0 0 127 0" result="hardAlpha"/>
<feOffset dy="2"/>
<feGaussianBlur stdDeviation="50"/>
<feComposite in2="hardAlpha" operator="out"/>
<feColorMatrix type="matrix" values="0 0 0 0 0 0 0 0 0 0 0 0 0 0 0 0 0 0 0.1 0"/>
<feBlend mode="normal" in2="BackgroundImageFix" result="effect1_dropShadow_187_1755"/>
<feBlend mode="normal" in="SourceGraphic" in2="effect1_dropShadow_187_1755" result="shape"/>
</filter>
</defs>
</svg>
