<svg width="30" height="30" viewBox="0 0 30 30" fill="none" xmlns="http://www.w3.org/2000/svg">
<circle cx="15" cy="15" r="15" fill="#ACCBFF"/>
<path d="M12.703 14C13.4592 14 14.1845 13.6839 14.7193 13.1213C15.254 12.5587 15.5545 11.7956 15.5545 11C15.5545 10.2044 15.254 9.44129 14.7193 8.87868C14.1845 8.31607 13.4592 8 12.703 8C11.9467 8 11.2214 8.31607 10.6867 8.87868C10.1519 9.44129 9.85149 10.2044 9.85149 11C9.85149 11.7956 10.1519 12.5587 10.6867 13.1213C11.2214 13.6839 11.9467 14 12.703 14ZM12.703 16C14.2155 16 15.6661 16.6321 16.7356 17.7574C17.8051 18.8826 18.4059 20.4087 18.4059 22H7C7 20.4087 7.60085 18.8826 8.67036 17.7574C9.73988 16.6321 11.1904 16 12.703 16ZM20.3069 12C20.3069 11.7348 20.2068 11.4804 20.0285 11.2929C19.8503 11.1054 19.6085 11 19.3564 11C19.1043 11 18.8626 11.1054 18.6843 11.2929C18.5061 11.4804 18.4059 11.7348 18.4059 12V13H17.4554C17.2034 13 16.9616 13.1054 16.7833 13.2929C16.6051 13.4804 16.505 13.7348 16.505 14C16.505 14.2652 16.6051 14.5196 16.7833 14.7071C16.9616 14.8946 17.2034 15 17.4554 15H18.4059V16C18.4059 16.2652 18.5061 16.5196 18.6843 16.7071C18.8626 16.8946 19.1043 17 19.3564 17C19.6085 17 19.8503 16.8946 20.0285 16.7071C20.2068 16.5196 20.3069 16.2652 20.3069 16V15H21.2574C21.5095 15 21.7513 14.8946 21.9295 14.7071C22.1078 14.5196 22.2079 14.2652 22.2079 14C22.2079 13.7348 22.1078 13.4804 21.9295 13.2929C21.7513 13.1054 21.5095 13 21.2574 13H20.3069V12Z" fill="#0057FF"/>
</svg>
