<svg width="24" height="24" viewBox="0 0 24 24" fill="none" xmlns="http://www.w3.org/2000/svg">
<g clip-path="url(#clip0_81_8683)">
<path d="M6.5 14C4.57 14 3 15.57 3 17.5C3 19.43 4.57 21 6.5 21C8.43 21 10 19.43 10 17.5C9.99609 16.9367 9.85429 16.3829 9.587 15.887L12.115 13.53L14.433 15.848C14.1529 16.3538 14.004 16.9218 14 17.5C14 19.43 15.57 21 17.5 21C19.43 21 21 19.43 21 17.5C21 15.57 19.43 14 17.5 14C16.899 14 16.342 14.166 15.848 14.434L13.58 12.165L19.121 7C19.6836 6.43752 19.9998 5.67458 20 4.879V2L8.518 14.65C7.946 14.244 7.253 14 6.5 14ZM8 17.5C8 18.327 7.327 19 6.5 19C5.673 19 5 18.327 5 17.5C5 16.673 5.673 16 6.5 16C7.327 16 8 16.673 8 17.5ZM19 17.5C19 18.327 18.327 19 17.5 19C16.673 19 16 18.327 16 17.5C16 16.673 16.673 16 17.5 16C18.327 16 19 16.673 19 17.5Z" fill="#878787"/>
<path d="M4.879 7.00003L9.293 10.707L10.707 9.29303L4 2.00003L4 4.87903C4.00017 5.67462 4.31635 6.43755 4.879 7.00003Z" fill="#878787"/>
</g>
<defs>
<clipPath id="clip0_81_8683">
<rect width="24" height="24" fill="white"/>
</clipPath>
</defs>
</svg>
