<svg width="21" height="20" viewBox="0 0 21 20" fill="none" xmlns="http://www.w3.org/2000/svg">
<path d="M19.5097 8.00194L19.5 8.05049V8.1C19.5 8.11789 19.4953 8.13163 19.4909 8.13943C19.4901 8.14073 19.4894 8.14186 19.4887 8.14285C19.4875 8.14456 19.4863 8.14583 19.4853 8.14682C19.4838 8.14824 19.4813 8.15035 19.4764 8.15279L19.4067 8.18766L19.3508 8.24211L15.2508 12.2421L15.0619 12.4264L15.1075 12.6864L16.1068 18.3822C16.1069 18.3828 16.107 18.3835 16.1071 18.3841C16.1571 18.6899 15.9688 18.9332 15.7413 19H15.6C15.5485 19 15.5067 19 15.4677 18.9987C15.4403 18.9978 15.4188 18.9964 15.4019 18.9948L15.4004 18.9933L15.3339 18.9581L10.2339 16.2581L10 16.1343L9.76606 16.2581L4.66606 18.9581L4.65423 18.9644L4.64275 18.9713C4.42077 19.1044 4.12198 19.0468 3.93977 18.7606C3.90888 18.6907 3.90111 18.6115 3.90012 18.4429L4.89248 12.7864L4.93809 12.5264L4.74916 12.3421L0.651687 8.34457C0.448817 8.13998 0.449439 7.85767 0.653553 7.65355L0.710927 7.59618L0.747214 7.52361C0.747381 7.52327 0.747539 7.52296 0.747685 7.52268C0.747965 7.52254 0.748271 7.52238 0.748607 7.52221C0.759628 7.5167 0.802325 7.5 0.9 7.5H0.934917L0.969494 7.49515L6.66949 6.69515L6.93462 6.65794L7.05063 6.41665L9.53941 1.23998C9.72159 0.953244 10.0206 0.895468 10.2428 1.02875L10.2592 1.03863L10.2764 1.04721C10.3462 1.08213 10.3714 1.10351 10.3839 1.11605C10.3965 1.12859 10.4179 1.15376 10.4528 1.22361L13.0528 6.42361L13.1703 6.65863L13.4305 6.69515L19.1305 7.49515L19.1651 7.5H19.2C19.2421 7.5 19.3306 7.52906 19.4165 7.65084C19.5019 7.77182 19.5282 7.90937 19.5097 8.00194Z" stroke="#B4B4B4"/>
</svg>
