<svg width="15" height="22" viewBox="0 0 15 22" fill="none" xmlns="http://www.w3.org/2000/svg">
<path d="M2.77367 14.1846H12.0815M12.0815 15.7744H2.77367M2.77367 17.4923H7.25179M2.05489 1.05128H12.9658C13.2401 1.05128 13.5031 1.15934 13.6971 1.35169C13.891 1.54403 14 1.80491 14 2.07692V18.4359C14 18.7079 13.891 18.9688 13.6971 19.1611C13.5031 19.3535 13.2401 19.4615 12.9658 19.4615H3.50278L1 21V2.02564C1 1.75362 1.10896 1.49275 1.30291 1.3004C1.49686 1.10806 1.75992 1 2.03421 1L2.05489 1.05128ZM2.77367 2.75897V11.4256H12.247V2.75897H2.77367Z" stroke="#878787" stroke-linecap="round" stroke-linejoin="round"/>
</svg>
