<svg width="16" height="14" viewBox="0 0 16 14" fill="none" xmlns="http://www.w3.org/2000/svg">
<path d="M0.975 10C0.691667 10 0.458333 9.904 0.275 9.712C0.0916668 9.52 0 9.28267 0 9C0 8.71667 0.0960001 8.479 0.288 8.287C0.48 8.095 0.717333 7.99934 1 8H15.025C15.3083 8 15.5417 8.096 15.725 8.288C15.9083 8.48 16 8.71734 16 9C16 9.28334 15.904 9.521 15.712 9.713C15.52 9.905 15.2827 10.0007 15 10H0.975ZM0.975 14C0.691667 14 0.458333 13.904 0.275 13.712C0.0916668 13.52 0 13.2827 0 13C0 12.7167 0.0960001 12.479 0.288 12.287C0.48 12.095 0.717333 11.9993 1 12H15.025C15.3083 12 15.5417 12.096 15.725 12.288C15.9083 12.48 16 12.7173 16 13C16 13.2833 15.904 13.521 15.712 13.713C15.52 13.905 15.2827 14.0007 15 14H0.975ZM0.975 6C0.691667 6 0.458333 5.904 0.275 5.712C0.0916668 5.52 0 5.28267 0 5C0 4.71667 0.0960001 4.479 0.288 4.287C0.48 4.095 0.717333 3.99934 1 4H15.025C15.3083 4 15.5417 4.096 15.725 4.288C15.9083 4.48 16 4.71734 16 5C16 5.28334 15.904 5.521 15.712 5.713C15.52 5.905 15.2827 6.00067 15 6H0.975ZM0.975 2C0.691667 2 0.458333 1.904 0.275 1.712C0.0916668 1.52 0 1.28267 0 1C0 0.71667 0.0960001 0.479004 0.288 0.287004C0.48 0.0950036 0.717333 -0.000663206 1 3.4602e-06H15.025C15.3083 3.4602e-06 15.5417 0.0960036 15.725 0.288004C15.9083 0.480004 16 0.717337 16 1C16 1.28334 15.904 1.521 15.712 1.713C15.52 1.905 15.2827 2.00067 15 2H0.975Z" fill="#B4B4B4"/>
</svg>
