<svg width="8" height="16" viewBox="0 0 8 16" fill="none" xmlns="http://www.w3.org/2000/svg">
<path d="M4.3187 14.8052C4.24204 14.934 4.13506 15.0404 4.00791 15.1141C3.88076 15.1879 3.73763 15.2266 3.5921 15.2266C3.44657 15.2266 3.30345 15.1879 3.17629 15.1141C3.04914 15.0404 2.94216 14.934 2.8655 14.8052L0.13006 10.2524C0.0490313 10.1173 0.00425339 9.9621 0.000392437 9.8029C-0.00346851 9.6437 0.0337286 9.48633 0.108108 9.3472C0.182487 9.20807 0.291327 9.09226 0.423285 9.01184C0.555243 8.93142 0.705491 8.88934 0.858371 8.88998H6.32925C6.48155 8.89061 6.63092 8.93362 6.76192 9.01455C6.89291 9.09548 7.00077 9.2114 7.07433 9.35032C7.1479 9.48923 7.1845 9.64609 7.18035 9.80468C7.1762 9.96327 7.13145 10.1178 7.05072 10.2524L4.3187 14.8052Z" fill="#838D94"/>
<path d="M2.87075 1.19481C2.94741 1.06595 3.05439 0.95962 3.18154 0.88588C3.3087 0.812141 3.45182 0.773438 3.59735 0.773438C3.74288 0.773438 3.886 0.812141 4.01316 0.88588C4.14031 0.95962 4.24729 1.06595 4.32395 1.19481L7.05939 5.74764C7.14042 5.88269 7.1852 6.0379 7.18906 6.1971C7.19292 6.3563 7.15572 6.51367 7.08134 6.6528C7.00697 6.79194 6.89813 6.90774 6.76617 6.98816C6.63421 7.06858 6.48396 7.11066 6.33108 7.11002H0.860201C0.707901 7.10939 0.558528 7.06638 0.427535 6.98545C0.296541 6.90452 0.188684 6.7886 0.11512 6.64969C0.0415556 6.51077 0.00495594 6.35391 0.00910665 6.19532C0.0132574 6.03673 0.0580077 5.88218 0.138729 5.74764L2.87075 1.19481Z" fill="#838D94"/>
</svg>
