<svg width="20" height="19" viewBox="0 0 20 19" fill="none" xmlns="http://www.w3.org/2000/svg">
<path d="M10.1333 17.2972C10.5402 17.2977 10.9413 17.3932 11.3047 17.5761C11.6681 17.7589 11.9838 18.0241 12.2267 18.3505C12.3882 18.5677 12.617 18.7253 12.8775 18.7988C13.1379 18.8724 13.4154 18.8577 13.6667 18.7572C14.6331 18.3682 15.5329 17.8306 16.3333 17.1638C16.5344 16.9976 16.6776 16.7719 16.7423 16.5191C16.807 16.2663 16.7898 15.9996 16.6933 15.7572C16.5365 15.386 16.4682 14.9834 16.4936 14.5812C16.5191 14.1791 16.6377 13.7883 16.84 13.4398C17.0424 13.0914 17.323 12.7947 17.6597 12.5733C17.9963 12.3518 18.3799 12.2117 18.78 12.1639M10.1333 17.2972L10.1345 16.7972M10.1333 17.2972C9.71345 17.2962 9.29967 17.3977 8.9279 17.5928C8.55613 17.788 8.23762 18.071 8.00001 18.4172C7.88703 18.5775 7.73727 18.7084 7.56327 18.7988C7.38927 18.8893 7.19612 18.9368 7.00001 18.9372M10.1333 17.2972L10.134 16.7972C10.1342 16.7972 10.1343 16.7972 10.1345 16.7972M10.1345 16.7972C10.619 16.7979 11.0967 16.9116 11.5294 17.1294C11.9624 17.3473 12.3385 17.6632 12.6278 18.052L12.6278 18.0521C12.7235 18.1807 12.8591 18.2741 13.0134 18.3177C13.1676 18.3612 13.3318 18.3526 13.4806 18.2931M10.1345 16.7972L3.67334 17.1905C4.54009 17.9094 5.52306 18.4753 6.58001 18.8638M13.4806 18.2931C13.4804 18.2932 13.4802 18.2933 13.48 18.2933L13.6666 18.757L13.4809 18.293C13.4808 18.293 13.4807 18.2931 13.4806 18.2931ZM13.4806 18.2931C14.3985 17.9236 15.253 17.413 16.0133 16.7797L16.0147 16.7785C16.1343 16.6796 16.2194 16.5454 16.2579 16.3951C16.296 16.2462 16.2863 16.0892 16.2304 15.9461M16.2304 15.9461C16.2312 15.948 16.2319 15.9499 16.2327 15.9517L16.6933 15.7572L16.2288 15.9421C16.2293 15.9434 16.2298 15.9448 16.2304 15.9461ZM16.2304 15.9461C16.0451 15.5051 15.9644 15.0271 15.9946 14.5496C16.025 14.0701 16.1664 13.6042 16.4077 13.1888C16.6489 12.7733 16.9835 12.4195 17.3849 12.1555C17.7848 11.8925 18.2402 11.7256 18.7153 11.668M18.7153 11.668C18.7141 11.6682 18.7128 11.6684 18.7115 11.6686L18.78 12.1639M18.7153 11.668C18.7171 11.6678 18.7189 11.6676 18.7207 11.6674L18.78 12.1639M18.7153 11.668C18.8681 11.6461 19.0102 11.5764 19.1212 11.469C19.233 11.3607 19.3075 11.2195 19.3339 11.066L19.3356 11.056L19.3357 11.056C19.437 10.5299 19.492 9.99588 19.5 9.46016M18.78 12.1639C19.0395 12.128 19.2808 12.0104 19.4689 11.8282C19.6571 11.646 19.7824 11.4087 19.8267 11.1505C19.9337 10.5945 19.9917 10.0301 20 9.46385M20 9.46385L19.5 9.46375C19.5 9.46255 19.5 9.46136 19.5 9.46016M20 9.46385C20.0001 8.86662 19.9443 8.27068 19.8333 7.68385C19.7883 7.43139 19.6649 7.19953 19.4806 7.02121C19.2963 6.84289 19.0605 6.72718 18.8067 6.69052L3.33334 15.7372C3.5066 15.3598 3.58693 14.9463 3.56761 14.5315C3.54829 14.1167 3.42988 13.7125 3.2223 13.3528C3.01472 12.9932 2.724 12.6884 2.37448 12.4642C2.02496 12.2399 1.62681 12.1027 1.21335 12.0639L1.26665 11.5667C1.26574 11.5666 1.26484 11.5665 1.26393 11.5664C1.1047 11.5487 0.955615 11.4794 0.839484 11.369C0.722692 11.2579 0.645739 11.1115 0.620532 10.9523L0.620046 10.9493C0.539296 10.4586 0.499149 9.96205 0.500014 9.46472V9.46385C0.500014 8.87022 0.559229 8.27807 0.67678 7.6962L0.676801 7.6962L0.677676 7.69165C0.707351 7.53741 0.785762 7.39678 0.901367 7.29045C1.01625 7.18479 1.16183 7.11855 1.31691 7.10134C1.79782 7.05615 2.26154 6.89921 2.67106 6.64301C3.08175 6.38607 3.42652 6.03646 3.67769 5.62222C3.92886 5.20798 4.07946 4.74063 4.11739 4.25767C4.15518 3.77655 4.08012 3.29328 3.89821 2.84632C3.8424 2.69993 3.83449 2.53956 3.87567 2.38833C3.91719 2.23584 4.00645 2.10065 4.13036 2.00255L4.1307 2.00228C4.91274 1.38206 5.78876 0.89063 6.72571 0.546543L6.72745 0.545898C6.87217 0.49214 7.03016 0.485424 7.17892 0.526705C7.327 0.567802 7.45842 0.654379 7.55462 0.774186C7.84494 1.14469 8.21566 1.4444 8.63879 1.65065C9.0628 1.85733 9.52831 1.96474 10 1.96474C10.4717 1.96474 10.9372 1.85733 11.3612 1.65065C11.7844 1.4444 12.1551 1.14469 12.4454 0.774186C12.5416 0.654379 12.673 0.567802 12.8211 0.526705C12.9699 0.485424 13.1278 0.49214 13.2726 0.545902L13.2743 0.546537C14.2888 0.919138 15.2308 1.4651 16.0585 2.1601L16.0585 2.16011L16.0618 2.16285C16.1788 2.25939 16.2626 2.39013 16.3016 2.53674C16.3404 2.68273 16.3327 2.83715 16.2797 2.97855C16.1107 3.41428 16.0419 3.88249 16.0786 4.34843C16.1153 4.81529 16.2569 5.26785 16.4927 5.67242C16.7286 6.07698 17.0527 6.42312 17.4409 6.68507C17.8291 6.94701 18.2714 7.11801 18.7348 7.18533L18.7352 7.18539C18.885 7.20702 19.0242 7.27531 19.1329 7.38054C19.2417 7.48578 19.3145 7.62262 19.3411 7.77162L19.3411 7.77162L19.342 7.77678C19.447 8.33176 19.4999 8.89534 19.5 9.46016M20 9.46385L19.5001 9.45656C19.5 9.45776 19.5 9.45896 19.5 9.46016M6.58001 18.8638C6.71517 18.9107 6.85698 18.9354 7.00001 18.9372M6.58001 18.8638L6.75252 18.3945C6.75089 18.3939 6.74926 18.3934 6.74763 18.3927M6.58001 18.8638L6.74365 18.3914C6.74498 18.3918 6.7463 18.3923 6.74763 18.3927M7.00001 18.9372L7.00615 18.4372C7.00491 18.4372 7.00367 18.4372 7.00243 18.4372M7.00001 18.9372L6.99892 18.4372C7.00009 18.4372 7.00126 18.4372 7.00243 18.4372M7.00243 18.4372C7.1174 18.4364 7.23056 18.4083 7.33259 18.3552C7.43489 18.302 7.52305 18.2253 7.5898 18.1313L6.74763 18.3927M7.00243 18.4372C6.9157 18.4357 6.82973 18.4207 6.74763 18.3927M13.1873 11.5935C13.6085 10.9631 13.8333 10.222 13.8333 9.46385C13.8333 8.44719 13.4295 7.47217 12.7106 6.75328C11.9917 6.03439 11.0167 5.63052 10 5.63052C9.24185 5.63052 8.50071 5.85534 7.87032 6.27656C7.23993 6.69777 6.74861 7.29645 6.45847 7.9969C6.16833 8.69735 6.09242 9.46811 6.24033 10.2117C6.38824 10.9553 6.75333 11.6383 7.28943 12.1744C7.82553 12.7105 8.50857 13.0756 9.25216 13.2235C9.99575 13.3714 10.7665 13.2955 11.467 13.0054C12.1674 12.7153 12.7661 12.2239 13.1873 11.5935Z" stroke="#E3E3E3"/>
</svg>
