<svg width="20" height="20" viewBox="0 0 20 20" fill="none" xmlns="http://www.w3.org/2000/svg">
<path d="M9 8.15L8.1 7.275C7.9 7.09167 7.66233 7.004 7.387 7.012C7.11167 7.02 6.88267 7.116 6.7 7.3C6.51667 7.48333 6.425 7.71667 6.425 8C6.425 8.28333 6.51667 8.51667 6.7 8.7L9.3 11.3C9.5 11.5 9.73333 11.6 10 11.6C10.2667 11.6 10.5 11.5 10.7 11.3L13.325 8.675C13.5083 8.49167 13.596 8.26233 13.588 7.987C13.58 7.71167 13.484 7.48267 13.3 7.3C13.1167 7.11667 12.8873 7.025 12.612 7.025C12.3367 7.025 12.0993 7.11667 11.9 7.3L11 8.15V4.975C11 4.69167 10.904 4.45833 10.712 4.275C10.52 4.09167 10.2827 4 10 4C9.71667 4 9.479 4.096 9.287 4.288C9.095 4.48 8.99933 4.71733 9 5V8.15ZM6 15H14.025C14.3083 15 14.5417 14.904 14.725 14.712C14.9083 14.52 15 14.2827 15 14C15 13.7167 14.904 13.479 14.712 13.287C14.52 13.095 14.2827 12.9993 14 13H5.975C5.69167 13 5.45833 13.096 5.275 13.288C5.09167 13.48 5 13.7173 5 14C5 14.2833 5.096 14.521 5.288 14.713C5.48 14.905 5.71733 15.0007 6 15ZM10 20C8.61667 20 7.31667 19.7373 6.1 19.212C4.88333 18.6867 3.825 17.9743 2.925 17.075C2.025 16.175 1.31267 15.1167 0.788 13.9C0.263333 12.6833 0.000666667 11.3833 0 10C0 8.61667 0.262667 7.31667 0.788 6.1C1.31333 4.88333 2.02567 3.825 2.925 2.925C3.825 2.025 4.88333 1.31267 6.1 0.788C7.31667 0.263333 8.61667 0.000666667 10 0C11.3833 0 12.6833 0.262667 13.9 0.788C15.1167 1.31333 16.175 2.02567 17.075 2.925C17.975 3.825 18.6877 4.88333 19.213 6.1C19.7383 7.31667 20.0007 8.61667 20 10C20 11.3833 19.7373 12.6833 19.212 13.9C18.6867 15.1167 17.9743 16.175 17.075 17.075C16.175 17.975 15.1167 18.6877 13.9 19.213C12.6833 19.7383 11.3833 20.0007 10 20ZM10 18C12.2167 18 14.1043 17.221 15.663 15.663C17.2217 14.105 18.0007 12.2173 18 10C18 7.78333 17.221 5.89567 15.663 4.337C14.105 2.77833 12.2173 1.99933 10 2C7.78333 2 5.89567 2.779 4.337 4.337C2.77833 5.895 1.99933 7.78267 2 10C2 12.2167 2.779 14.1043 4.337 15.663C5.895 17.2217 7.78267 18.0007 10 18Z" fill="#878787"/>
</svg>
