<svg width="193" height="108" viewBox="0 0 193 108" fill="none" xmlns="http://www.w3.org/2000/svg">
<rect x="43.1953" y="34" width="36.7619" height="50" fill="white"/>
<rect width="193" height="108" rx="5" fill="white"/>
<path d="M106.75 44.2C105.07 35.6886 100.488 28.0243 93.7853 22.5162C87.0826 17.0082 78.6755 13.998 70 14C55.55 14 43 22.2 36.75 34.2C29.4012 34.9942 22.605 38.476 17.6674 43.9766C12.7299 49.4772 9.99914 56.6084 10 64C10 80.55 23.45 94 40 94H105C118.8 94 130 82.8 130 69C130 55.8 119.75 45.1 106.75 44.2Z" fill="#FB7538"/>
<path d="M68.1074 68.0586C68.1074 67.4141 68.1836 66.7959 68.3359 66.2041C68.4941 65.6064 68.7168 65.0498 69.0039 64.5342C69.291 64.0186 69.6367 63.5498 70.041 63.1279C70.4512 62.7061 70.9082 62.3457 71.4121 62.0469C71.916 61.7422 72.4609 61.5078 73.0469 61.3438C73.6387 61.1797 74.2598 61.0977 74.9102 61.0977C75.4258 61.0977 75.877 61.1328 76.2637 61.2031C76.6562 61.2676 76.9961 61.3525 77.2832 61.458C77.5762 61.5576 77.8193 61.6689 78.0127 61.792C78.2119 61.915 78.376 62.0322 78.5049 62.1436C78.499 62.1436 78.4961 62.1641 78.4961 62.2051C78.4961 62.293 78.502 62.4541 78.5137 62.6885C78.5312 62.9229 78.5488 63.1836 78.5664 63.4707C78.5898 63.7578 78.6074 64.0508 78.6191 64.3496C78.6367 64.6426 78.6455 64.8975 78.6455 65.1143C78.6455 65.1494 78.6338 65.1904 78.6104 65.2373C78.5869 65.2783 78.5283 65.2988 78.4346 65.2988C78.3818 65.2988 78.3174 65.29 78.2412 65.2725C78.1182 65.2373 77.9629 65.1582 77.7754 65.0352C77.5879 64.9062 77.3682 64.7744 77.1162 64.6396C76.8701 64.499 76.5918 64.376 76.2812 64.2705C75.9766 64.1592 75.6426 64.1035 75.2793 64.1035C74.7988 64.1035 74.3623 64.2002 73.9697 64.3936C73.5771 64.5811 73.2432 64.8418 72.9678 65.1758C72.6924 65.5098 72.4785 65.9082 72.3262 66.3711C72.1738 66.8281 72.0977 67.3291 72.0977 67.874C72.0977 68.3545 72.1504 68.8145 72.2559 69.2539C72.3613 69.6875 72.5195 70.0684 72.7305 70.3965C72.9473 70.7246 73.2139 70.9883 73.5303 71.1875C73.8525 71.3809 74.2246 71.4775 74.6465 71.4775C74.9805 71.4775 75.2764 71.4658 75.5342 71.4424C75.792 71.4189 76.0322 71.3809 76.2549 71.3281C76.4775 71.2754 76.6943 71.2051 76.9053 71.1172C77.1221 71.0293 77.3535 70.918 77.5996 70.7832C77.6113 70.7773 77.6406 70.7744 77.6875 70.7744C77.7285 70.7744 77.7549 70.792 77.7666 70.8271C77.7842 70.8564 77.793 70.9209 77.793 71.0205V72.0752C77.793 72.2686 77.79 72.459 77.7842 72.6465C77.7842 72.8281 77.7812 72.9922 77.7754 73.1387C77.7754 73.2852 77.7725 73.4053 77.7666 73.499C77.7666 73.5869 77.7637 73.6309 77.7578 73.6309C77.4883 73.8008 77.1982 73.9385 76.8877 74.0439C76.583 74.1553 76.2666 74.2402 75.9385 74.2988C75.6162 74.3633 75.291 74.4043 74.9629 74.4219C74.6348 74.4453 74.3184 74.457 74.0137 74.457C73.1875 74.457 72.4141 74.3018 71.6934 73.9912C70.9727 73.6748 70.3457 73.2354 69.8125 72.6729C69.2852 72.1104 68.8691 71.4365 68.5645 70.6514C68.2598 69.8662 68.1074 69.002 68.1074 68.0586ZM80.9342 66.5645C81.0045 65.7617 81.0602 64.9678 81.1012 64.1826C81.148 63.3975 81.1979 62.5918 81.2506 61.7656C81.2623 61.5723 81.2799 61.4404 81.3033 61.3701C81.3326 61.2939 81.4 61.2441 81.5055 61.2207C82.0504 61.1211 82.5953 61.0215 83.1402 60.9219C83.691 60.8164 84.2418 60.6787 84.7926 60.5088C84.8102 60.5029 84.8365 60.5 84.8717 60.5C84.9361 60.5 84.9684 60.5293 84.9684 60.5879L83.8258 73.1387V73.2881C83.8258 73.3408 83.8053 73.3848 83.7643 73.4199C83.7232 73.4492 83.6266 73.4844 83.4742 73.5254L81.1715 74.3691C81.107 74.3984 81.0221 74.4277 80.9166 74.457C80.8111 74.4922 80.7086 74.5098 80.609 74.5098C80.527 74.5098 80.4537 74.4893 80.3893 74.4482C80.3307 74.4072 80.3014 74.3369 80.3014 74.2373V74.1846C80.3482 73.5928 80.3922 73.0156 80.4332 72.4531C80.4801 71.8848 80.527 71.2988 80.5738 70.6953C80.6266 70.0918 80.6822 69.4531 80.7408 68.7793C80.7994 68.1055 80.8639 67.3672 80.9342 66.5645ZM91.5285 74.457C90.7023 74.457 89.9758 74.3223 89.3488 74.0527C88.7277 73.7832 88.2062 73.4258 87.7844 72.9805C87.3625 72.5293 87.0461 72.0137 86.8352 71.4336C86.6242 70.8477 86.5187 70.2412 86.5187 69.6143C86.5187 68.9873 86.6213 68.3926 86.8264 67.8301C87.0314 67.2617 87.3186 66.7549 87.6877 66.3096C88.0568 65.8584 88.4992 65.4834 89.0148 65.1846C89.5305 64.8799 90.0988 64.6748 90.7199 64.5693C90.8137 64.5635 90.8605 64.543 90.8605 64.5078C90.8605 64.4434 90.8518 64.3848 90.8342 64.332C90.8225 64.2734 90.8166 64.2236 90.8166 64.1826C90.8166 64.1182 90.8283 64.0742 90.8518 64.0508C90.8752 64.0273 90.9016 64.0156 90.9309 64.0156C92.05 64.0156 93.0021 64.1445 93.7873 64.4023C94.5725 64.6543 95.2111 65 95.7033 65.4395C96.1955 65.8789 96.5529 66.3975 96.7756 66.9951C96.9982 67.5928 97.1096 68.2344 97.1096 68.9199C97.1096 69.793 96.9631 70.5723 96.6701 71.2578C96.3771 71.9434 95.9758 72.5234 95.466 72.998C94.9621 73.4727 94.3703 73.833 93.6906 74.0791C93.0168 74.3311 92.2961 74.457 91.5285 74.457ZM89.9025 69.5176C89.9025 69.834 89.9348 70.1475 89.9992 70.458C90.0695 70.7686 90.1809 71.0498 90.3332 71.3018C90.4914 71.5537 90.6965 71.7588 90.9484 71.917C91.2004 72.0693 91.5139 72.1455 91.8889 72.1455C92.1584 72.1338 92.3928 72.0752 92.592 71.9697C92.7971 71.8584 92.9729 71.7178 93.1193 71.5479C93.2658 71.3721 93.3859 71.1758 93.4797 70.959C93.5793 70.7422 93.6555 70.5195 93.7082 70.291C93.7668 70.0566 93.8078 69.8281 93.8312 69.6055C93.8547 69.3828 93.8664 69.1807 93.8664 68.999C93.8664 68.6943 93.8195 68.3955 93.7258 68.1025C93.6379 67.8096 93.5061 67.5518 93.3303 67.3291C93.1545 67.1064 92.9348 66.9277 92.6711 66.793C92.4133 66.6523 92.1145 66.582 91.7746 66.582C91.423 66.582 91.1271 66.6875 90.8869 66.8984C90.6467 67.1035 90.4533 67.3584 90.3068 67.6631C90.1662 67.9678 90.0637 68.29 89.9992 68.6299C89.9348 68.9639 89.9025 69.2598 89.9025 69.5176ZM108.433 72.9102C108.416 73.1035 108.392 73.2383 108.363 73.3145C108.334 73.3848 108.269 73.4316 108.17 73.4551C107.672 73.5957 107.15 73.7393 106.605 73.8857C106.066 74.0264 105.542 74.2139 105.032 74.4482C105.014 74.4541 104.988 74.457 104.953 74.457C104.906 74.457 104.877 74.4453 104.865 74.4219C104.859 74.3984 104.856 74.3721 104.856 74.3428C104.856 74.3311 104.856 74.3105 104.856 74.2812C104.862 74.252 104.871 74.1963 104.883 74.1143C104.894 74.0381 104.909 73.9297 104.927 73.7891C104.95 73.6484 104.979 73.4609 105.014 73.2266C104.358 73.6543 103.775 73.9648 103.265 74.1582C102.762 74.3574 102.313 74.457 101.921 74.457C100.942 74.457 100.227 74.2227 99.7762 73.7539C99.3309 73.2793 99.1082 72.5732 99.1082 71.6357C99.1082 71.4658 99.1111 71.293 99.117 71.1172C99.1229 70.9355 99.1404 70.751 99.1697 70.5635C99.2342 69.8721 99.2898 69.2803 99.3367 68.7881C99.3836 68.29 99.4217 67.8682 99.451 67.5225C99.4803 67.1768 99.5037 66.8955 99.5213 66.6787C99.5447 66.4561 99.5623 66.2715 99.574 66.125C99.5916 65.9785 99.6033 65.8584 99.6092 65.7646C99.6209 65.665 99.6326 65.5684 99.6443 65.4746C99.6678 65.2871 99.6883 65.1553 99.7059 65.0791C99.7293 65.0029 99.7967 64.9531 99.908 64.9297C100.183 64.877 100.444 64.8301 100.69 64.7891C100.942 64.7422 101.188 64.6953 101.429 64.6484C101.675 64.5957 101.924 64.54 102.176 64.4814C102.428 64.4229 102.694 64.3525 102.975 64.2705C102.987 64.2705 102.999 64.2705 103.011 64.2705C103.022 64.2646 103.034 64.2617 103.046 64.2617C103.116 64.2617 103.151 64.2852 103.151 64.332V64.3496C103.128 64.5488 103.107 64.7363 103.09 64.9121C103.072 65.0879 103.054 65.2695 103.037 65.457C103.019 65.6387 102.999 65.835 102.975 66.0459C102.958 66.2568 102.934 66.5029 102.905 66.7842C102.876 67.0596 102.841 67.3789 102.8 67.7422C102.759 68.1055 102.709 68.5273 102.65 69.0078C102.615 69.3594 102.58 69.7109 102.545 70.0625C102.51 70.4082 102.492 70.7305 102.492 71.0293C102.492 71.1934 102.504 71.3457 102.527 71.4863C102.551 71.6211 102.592 71.7383 102.65 71.8379C102.715 71.9316 102.797 72.0049 102.896 72.0576C102.996 72.1104 103.125 72.1367 103.283 72.1367C103.406 72.1367 103.573 72.1104 103.784 72.0576C103.995 71.999 104.206 71.9023 104.417 71.7676C104.628 71.627 104.812 71.4453 104.971 71.2227C105.135 70.9941 105.228 70.707 105.252 70.3613C105.293 69.7812 105.328 69.2979 105.357 68.9111C105.392 68.5186 105.422 68.1904 105.445 67.9268C105.469 67.6572 105.489 67.4316 105.507 67.25C105.524 67.0684 105.539 66.8955 105.551 66.7314C105.568 66.5615 105.583 66.3828 105.595 66.1953C105.606 66.002 105.618 65.7617 105.63 65.4746C105.647 65.2812 105.668 65.1494 105.691 65.0791C105.721 65.0029 105.788 64.9531 105.893 64.9297C106.427 64.8242 106.971 64.7188 107.528 64.6133C108.085 64.502 108.63 64.3613 109.163 64.1914C109.21 64.1914 109.236 64.2002 109.242 64.2178C109.254 64.2295 109.26 64.25 109.26 64.2793L108.433 72.9102ZM117.947 68.999C117.964 68.8115 117.982 68.6152 117.999 68.4102C118.023 68.2051 118.049 67.9912 118.079 67.7686C117.944 67.417 117.753 67.1328 117.507 66.916C117.261 66.6934 116.954 66.582 116.584 66.582C116.221 66.582 115.913 66.6875 115.662 66.8984C115.41 67.1035 115.207 67.3584 115.055 67.6631C114.903 67.9678 114.791 68.29 114.721 68.6299C114.657 68.9639 114.624 69.2598 114.624 69.5176C114.624 69.834 114.642 70.1475 114.677 70.458C114.718 70.7686 114.78 71.0498 114.862 71.3018C114.95 71.5537 115.064 71.7588 115.204 71.917C115.345 72.0693 115.521 72.1455 115.732 72.1455C116.247 72.1279 116.666 72.0107 116.989 71.7939C117.311 71.5771 117.569 71.3135 117.762 71.0029L117.947 68.999ZM121.014 73.1123C121.014 73.124 121.011 73.1387 121.005 73.1562C121.005 73.168 121.005 73.1797 121.005 73.1914C121.005 73.2207 121.005 73.2441 121.005 73.2617C121.011 73.2793 121.014 73.2969 121.014 73.3145C121.014 73.3672 120.994 73.4111 120.953 73.4463C120.917 73.4756 120.821 73.5107 120.662 73.5518L118.307 74.3164C118.243 74.3398 118.158 74.3691 118.052 74.4043C117.947 74.4395 117.844 74.457 117.745 74.457C117.662 74.457 117.589 74.4365 117.525 74.3955C117.466 74.3545 117.437 74.2783 117.437 74.167C117.437 74.0615 117.437 73.9766 117.437 73.9121C117.443 73.8477 117.446 73.7891 117.446 73.7363C117.452 73.6777 117.457 73.6162 117.463 73.5518C117.475 73.4873 117.487 73.4023 117.498 73.2969C117.059 73.6484 116.605 73.9297 116.136 74.1406C115.673 74.3516 115.184 74.457 114.668 74.457C114.106 74.457 113.605 74.3223 113.165 74.0527C112.732 73.7891 112.366 73.4346 112.067 72.9893C111.768 72.5381 111.539 72.0254 111.381 71.4512C111.229 70.8711 111.153 70.2676 111.153 69.6406C111.153 68.8262 111.285 68.085 111.548 67.417C111.818 66.7432 112.181 66.1689 112.638 65.6943C113.095 65.2139 113.628 64.8447 114.238 64.5869C114.847 64.3232 115.495 64.1914 116.18 64.1914C116.549 64.1914 116.901 64.2881 117.235 64.4814C117.575 64.6748 117.894 64.9238 118.193 65.2285C118.21 64.9414 118.231 64.6309 118.254 64.2969C118.278 63.957 118.301 63.6143 118.325 63.2686C118.348 62.917 118.371 62.5713 118.395 62.2314C118.418 61.8916 118.439 61.5811 118.456 61.2998C118.456 61.2471 118.474 61.2061 118.509 61.1768C118.55 61.1416 118.65 61.1035 118.808 61.0625L121.278 60.4736C121.342 60.4619 121.427 60.4355 121.533 60.3945C121.638 60.3535 121.741 60.333 121.84 60.333C121.916 60.333 121.987 60.3506 122.051 60.3857C122.121 60.4209 122.157 60.4883 122.157 60.5879C122.157 60.5996 122.154 60.626 122.148 60.667C122.148 60.7021 122.148 60.7256 122.148 60.7373L121.014 73.1123Z" fill="white"/>
<path d="M134.164 74C134.094 74 134.024 73.9941 133.953 73.9824C133.883 73.9648 133.819 73.9385 133.76 73.9033C133.701 73.8623 133.652 73.8096 133.611 73.7451C133.575 73.6748 133.558 73.584 133.558 73.4727C133.558 73.4609 133.561 73.4492 133.567 73.4375C133.572 73.4258 133.575 73.4141 133.575 73.4023L138.154 65.3691C138.154 65.3516 138.09 65.3369 137.961 65.3252C137.838 65.3076 137.677 65.2959 137.478 65.29C137.284 65.2783 137.071 65.2695 136.836 65.2637C136.602 65.252 136.376 65.2461 136.159 65.2461C135.948 65.2402 135.758 65.2373 135.588 65.2373C135.424 65.2314 135.313 65.2285 135.254 65.2285C134.938 65.2285 134.642 65.2344 134.366 65.2461C134.091 65.252 133.804 65.2549 133.505 65.2549C133.441 65.2549 133.385 65.2344 133.338 65.1934C133.291 65.1465 133.268 65.0938 133.268 65.0352C133.274 65.0293 133.277 65.0234 133.277 65.0176C133.277 65 133.279 64.9824 133.285 64.9648L134.419 62.249C134.472 62.1201 134.551 62.0176 134.656 61.9414C134.768 61.8594 134.891 61.7979 135.026 61.7568C135.166 61.71 135.316 61.6807 135.474 61.6689C135.632 61.6514 135.787 61.6426 135.94 61.6426C136.578 61.6426 137.208 61.6572 137.829 61.6865C138.45 61.71 139.069 61.7363 139.684 61.7656C140.305 61.7949 140.923 61.8242 141.538 61.8535C142.159 61.877 142.786 61.8887 143.419 61.8887V62.249L139.139 70.2471C139.139 70.2588 139.136 70.2676 139.13 70.2734C139.13 70.2734 139.13 70.2793 139.13 70.291C139.13 70.3555 139.159 70.3936 139.218 70.4053C139.277 70.4111 139.329 70.4141 139.376 70.4141H141.116C141.468 70.4141 141.808 70.3936 142.136 70.3525C142.464 70.3057 142.804 70.2822 143.155 70.2822C143.226 70.2822 143.29 70.3057 143.349 70.3525C143.407 70.3936 143.437 70.4463 143.437 70.5107C143.437 70.5049 143.431 70.5312 143.419 70.5898L142.004 73.4023C141.957 73.543 141.869 73.6543 141.74 73.7363C141.617 73.8184 141.465 73.8799 141.283 73.9209C141.108 73.9619 140.911 73.9883 140.695 74C140.478 74.0117 140.255 74.0176 140.027 74.0176C139.107 74.0176 138.172 74.0146 137.223 74.0088C136.279 74.0029 135.26 74 134.164 74ZM145.409 70.2734C145.485 69.4707 145.561 68.6768 145.637 67.8916C145.714 67.1064 145.781 66.3008 145.84 65.4746C145.851 65.2812 145.869 65.1494 145.892 65.0791C145.922 65.0029 145.989 64.9531 146.095 64.9297C146.593 64.8301 147.114 64.7275 147.659 64.6221C148.204 64.5107 148.731 64.3701 149.241 64.2002C149.259 64.1943 149.285 64.1914 149.32 64.1914C149.385 64.1914 149.417 64.2148 149.417 64.2617L148.626 72.8223C148.608 73.0156 148.588 73.1504 148.564 73.2266C148.541 73.2969 148.476 73.3438 148.371 73.3672C147.873 73.5195 147.369 73.6895 146.859 73.877C146.349 74.0645 145.81 74.2549 145.242 74.4482C145.224 74.4541 145.198 74.457 145.163 74.457C145.098 74.457 145.066 74.4277 145.066 74.3691C145.066 74.3633 145.072 74.2842 145.084 74.1318C145.096 73.9795 145.11 73.7832 145.128 73.543C145.151 73.3027 145.175 73.0332 145.198 72.7344C145.221 72.4355 145.245 72.1367 145.268 71.8379C145.298 71.5391 145.324 71.252 145.347 70.9766C145.371 70.7012 145.391 70.4668 145.409 70.2734ZM146.068 63.2598C146.086 63.0078 146.097 62.8145 146.103 62.6797C146.115 62.5449 146.124 62.4453 146.13 62.3809C146.136 62.3105 146.138 62.2666 146.138 62.249C146.138 62.2314 146.138 62.2197 146.138 62.2139C146.144 62.2021 146.147 62.1846 146.147 62.1611C146.153 62.1318 146.159 62.0762 146.165 61.9941C146.171 61.9062 146.179 61.7803 146.191 61.6162C146.203 61.4521 146.221 61.2266 146.244 60.9395C146.256 60.7461 146.273 60.6143 146.297 60.5439C146.326 60.4678 146.393 60.418 146.499 60.3945C146.997 60.2949 147.518 60.1924 148.063 60.0869C148.608 59.9756 149.136 59.835 149.645 59.665C149.663 59.6592 149.689 59.6562 149.724 59.6562C149.742 59.6914 149.765 59.7148 149.795 59.7266L149.821 59.7441L149.628 62.1523C149.61 62.3457 149.587 62.4805 149.557 62.5566C149.534 62.6328 149.472 62.6797 149.373 62.6973C148.875 62.791 148.371 62.8936 147.861 63.0049C147.351 63.1162 146.812 63.2275 146.244 63.3389C146.226 63.3447 146.2 63.3477 146.165 63.3477C146.1 63.3477 146.068 63.3184 146.068 63.2598ZM152.066 66.5645C152.136 65.7617 152.192 64.9678 152.233 64.1826C152.28 63.3975 152.329 62.5918 152.382 61.7656C152.394 61.5723 152.412 61.4404 152.435 61.3701C152.464 61.2939 152.532 61.2441 152.637 61.2207C153.182 61.1211 153.727 61.0215 154.272 60.9219C154.823 60.8164 155.373 60.6787 155.924 60.5088C155.942 60.5029 155.968 60.5 156.003 60.5C156.068 60.5 156.1 60.5293 156.1 60.5879L154.957 73.1387V73.2881C154.957 73.3408 154.937 73.3848 154.896 73.4199C154.855 73.4492 154.758 73.4844 154.606 73.5254L152.303 74.3691C152.239 74.3984 152.154 74.4277 152.048 74.457C151.943 74.4922 151.84 74.5098 151.741 74.5098C151.659 74.5098 151.585 74.4893 151.521 74.4482C151.462 74.4072 151.433 74.3369 151.433 74.2373V74.1846C151.48 73.5928 151.524 73.0156 151.565 72.4531C151.612 71.8848 151.659 71.2988 151.705 70.6953C151.758 70.0918 151.814 69.4531 151.872 68.7793C151.931 68.1055 151.996 67.3672 152.066 66.5645ZM158.433 66.5645C158.503 65.7617 158.559 64.9678 158.6 64.1826C158.646 63.3975 158.696 62.5918 158.749 61.7656C158.761 61.5723 158.778 61.4404 158.802 61.3701C158.831 61.2939 158.898 61.2441 159.004 61.2207C159.549 61.1211 160.094 61.0215 160.639 60.9219C161.189 60.8164 161.74 60.6787 162.291 60.5088C162.309 60.5029 162.335 60.5 162.37 60.5C162.435 60.5 162.467 60.5293 162.467 60.5879L161.324 73.1387V73.2881C161.324 73.3408 161.304 73.3848 161.263 73.4199C161.222 73.4492 161.125 73.4844 160.973 73.5254L158.67 74.3691C158.605 74.3984 158.521 74.4277 158.415 74.457C158.31 74.4922 158.207 74.5098 158.107 74.5098C158.025 74.5098 157.952 74.4893 157.888 74.4482C157.829 74.4072 157.8 74.3369 157.8 74.2373V74.1846C157.847 73.5928 157.891 73.0156 157.932 72.4531C157.979 71.8848 158.025 71.2988 158.072 70.6953C158.125 70.0918 158.181 69.4531 158.239 68.7793C158.298 68.1055 158.362 67.3672 158.433 66.5645ZM173.167 72.2334C173.161 72.2568 173.158 72.2803 173.158 72.3037C173.158 72.3213 173.158 72.3389 173.158 72.3564C173.158 72.5029 173.181 72.626 173.228 72.7256C173.275 72.8193 173.325 72.8984 173.378 72.9629C173.436 73.0215 173.489 73.0713 173.536 73.1123C173.583 73.1475 173.606 73.1797 173.606 73.209C173.606 73.291 173.518 73.3672 173.342 73.4375L170.978 74.4482C170.972 74.4541 170.952 74.457 170.917 74.457C170.87 74.457 170.823 74.416 170.776 74.334C170.729 74.252 170.682 74.1465 170.635 74.0176C170.594 73.8945 170.553 73.7627 170.512 73.6221C170.477 73.4756 170.445 73.3408 170.416 73.2178C170.046 73.6455 169.648 73.959 169.22 74.1582C168.793 74.3574 168.368 74.457 167.946 74.457C167.454 74.457 166.973 74.3486 166.504 74.1318C166.036 73.915 165.62 73.6074 165.256 73.209C164.893 72.8047 164.6 72.3184 164.378 71.75C164.161 71.1816 164.052 70.543 164.052 69.834C164.052 68.9961 164.172 68.2314 164.413 67.54C164.659 66.8486 164.99 66.2539 165.406 65.7559C165.822 65.2578 166.305 64.874 166.856 64.6045C167.413 64.3291 168.002 64.1914 168.623 64.1914C169.062 64.1914 169.478 64.2822 169.871 64.4639C170.263 64.6396 170.635 64.8682 170.987 65.1494C171.022 64.9736 171.043 64.833 171.048 64.7275C171.054 64.6221 171.066 64.54 171.084 64.4814C171.107 64.4229 171.148 64.3848 171.207 64.3672C171.265 64.3438 171.362 64.3262 171.497 64.3145C171.919 64.2559 172.338 64.2031 172.754 64.1562C173.175 64.1035 173.615 64.0654 174.072 64.042L173.167 72.2334ZM170.539 68.9199C170.597 68.5859 170.635 68.2725 170.653 67.9795C170.676 67.6807 170.694 67.4082 170.706 67.1621C170.612 67.0918 170.509 67.0186 170.398 66.9424C170.293 66.8662 170.175 66.7959 170.046 66.7314C169.923 66.6611 169.792 66.6055 169.651 66.5645C169.516 66.5234 169.373 66.5029 169.22 66.5029C168.904 66.5029 168.637 66.6055 168.421 66.8105C168.21 67.0156 168.037 67.2676 167.902 67.5664C167.773 67.8652 167.679 68.1816 167.621 68.5156C167.568 68.8496 167.542 69.1455 167.542 69.4033C167.542 70.3291 167.662 71.0088 167.902 71.4424C168.148 71.8701 168.488 72.084 168.921 72.084C169.097 72.084 169.294 72.0342 169.51 71.9346C169.727 71.835 169.947 71.6973 170.17 71.5215L170.539 68.9199Z" fill="#F0682C"/>
</svg>
