<svg width="20" height="20" viewBox="0 0 20 20" fill="none" xmlns="http://www.w3.org/2000/svg">
<path d="M8.33394 19.9999C9.84273 19.9999 11.1053 18.9248 11.3952 17.4999H5.27148C5.56262 18.9248 6.82392 19.9999 8.33394 19.9999Z" fill="#051F61"/>
<path d="M7.57126 2.22861L8.00004 2.16691V1.73371V0.833744C8.00004 0.64924 8.14954 0.5 8.33378 0.5C8.51707 0.5 8.66631 0.648287 8.66631 0.833744V1.38869C7.88127 2.53659 7.4163 3.92264 7.4163 5.41751C7.4163 9.28392 10.494 12.4458 14.3297 12.5794C14.692 13.2952 15.1944 13.9422 15.8259 14.4757C16.0473 14.6658 16.1676 14.9311 16.1676 15.2088C16.1676 15.7375 15.7368 16.1676 15.2088 16.1676H1.45875C0.930104 16.1676 0.5 15.7368 0.5 15.2088C0.5 14.9293 0.621691 14.6645 0.834214 14.4819C2.21291 13.315 3.00001 11.6197 3.00001 9.82366V7.50004C3.00001 4.82099 4.99001 2.60007 7.57126 2.22861Z" stroke="#051F61"/>
<path d="M14.5843 0C11.5981 0 9.16797 2.43013 9.16797 5.41629C9.16797 8.40245 11.5981 10.8326 14.5843 10.8326C17.5704 10.8326 20.0005 8.40367 20.0005 5.41629C20.0005 2.42891 17.5704 0 14.5843 0ZM15.4168 7.2913C15.4168 7.63615 15.1366 7.9163 14.7918 7.9163C14.4466 7.9163 14.1668 7.63615 14.1668 7.2913V4.58254H13.7505C13.4057 4.58254 13.1255 4.30239 13.1255 3.95754C13.1255 3.61238 13.4057 3.33254 13.7505 3.33254H14.7918C15.1366 3.33254 15.4168 3.61238 15.4168 3.95754V7.2913Z" fill="#F0682C"/>
</svg>
