<svg width="50" height="50" viewBox="0 0 50 50" fill="none" xmlns="http://www.w3.org/2000/svg">
<path d="M17.8751 35.9373L19.7917 27.8332L13.5417 22.4582L21.7709 21.6873L25.0001 14.1665L28.2292 21.7707L36.4584 22.4582L30.2084 27.8332L32.1251 35.9373L25.0001 31.6457L17.8751 35.9373ZM25.0001 4.1665C27.736 4.1665 30.445 4.70537 32.9726 5.75235C35.5003 6.79932 37.7969 8.33389 39.7315 10.2684C41.666 12.203 43.2006 14.4996 44.2476 17.0273C45.2945 19.5549 45.8334 22.264 45.8334 24.9998C45.8334 30.5252 43.6385 35.8242 39.7315 39.7312C35.8245 43.6382 30.5254 45.8332 25.0001 45.8332C22.2642 45.8332 19.5551 45.2943 17.0275 44.2473C14.4999 43.2004 12.2032 41.6658 10.2687 39.7312C6.36168 35.8242 4.16675 30.5252 4.16675 24.9998C4.16675 19.4745 6.36168 14.1755 10.2687 10.2684C14.1757 6.36144 19.4747 4.1665 25.0001 4.1665ZM25.0001 8.33317C20.5798 8.33317 16.3406 10.0891 13.215 13.2147C10.0894 16.3403 8.33341 20.5796 8.33341 24.9998C8.33341 29.4201 10.0894 33.6593 13.215 36.7849C16.3406 39.9106 20.5798 41.6665 25.0001 41.6665C29.4204 41.6665 33.6596 39.9106 36.7852 36.7849C39.9108 33.6593 41.6667 29.4201 41.6667 24.9998C41.6667 20.5796 39.9108 16.3403 36.7852 13.2147C33.6596 10.0891 29.4204 8.33317 25.0001 8.33317Z" fill="#F0682C"/>
</svg>
