<svg width="16" height="15" viewBox="0 0 16 15" fill="none" xmlns="http://www.w3.org/2000/svg">
<path d="M1.72543 14.5H14.2754C15.5588 14.5 16.3588 13.1083 15.7171 12L9.44209 1.15834C8.80043 0.0500041 7.20043 0.0500041 6.55876 1.15834L0.28376 12C-0.357907 13.1083 0.442093 14.5 1.72543 14.5ZM8.00043 8.66667C7.54209 8.66667 7.16709 8.29167 7.16709 7.83334V6.16667C7.16709 5.70834 7.54209 5.33334 8.00043 5.33334C8.45876 5.33334 8.83376 5.70834 8.83376 6.16667V7.83334C8.83376 8.29167 8.45876 8.66667 8.00043 8.66667ZM8.83376 12H7.16709V10.3333H8.83376V12Z" fill="#F0DC2C"/>
</svg>
